<?xml version="1.0" encoding="utf-8"?>
<!-- Generator: Adobe Illustrator 26.0.3, SVG Export Plug-In . SVG Version: 6.00 Build 0)  -->
<svg version="1.1" id="_x2018_ëîé_x5F_1" xmlns="http://www.w3.org/2000/svg" xmlns:xlink="http://www.w3.org/1999/xlink"
	 x="0px" y="0px" viewBox="0 0 5000 321.62" style="enable-background:new 0 0 5000 321.62;" xml:space="preserve">
<style type="text/css">
	.st0{fill:#2B3872;}
	.st1{fill:#4656A1;}
	.st2{fill:#38488C;}
	.st3{fill:#232851;}
	.st4{fill:#15172D;}
	.st5{fill:#2C447D;}
</style>
<g>
	<g>
		<path class="st0" d="M1988.75,228.43h-82.91c-19.8,0-35.84-16.05-35.84-35.84v-63.56c0-10.92,4.89-20.7,12.59-27.27h0.01
			c6.25-5.34,14.37-8.56,23.24-8.56h82.91V228.43z"/>
		<g>
			<g>
				<path class="st1" d="M2182.03,299.08h-165.62c-25.57,0-46.31-20.74-46.31-46.32V68.86c0-25.57,20.74-46.31,46.31-46.31h165.62
					V299.08z"/>
				<path class="st2" d="M2218.49,6.08v309.46c0,3.36-2.72,6.08-6.08,6.08h-24.3c-3.36,0-6.08-2.72-6.08-6.08V6.08
					c0-3.36,2.72-6.08,6.08-6.08h24.3C2215.77,0,2218.49,2.72,2218.49,6.08z"/>
			</g>
			<path class="st3" d="M2218.49,119.31V72.18h112.71c13.01,0,23.56,10.55,23.56,23.56l0,0c0,13.01-10.55,23.56-23.56,23.56H2218.49
				z"/>
			<path class="st3" d="M2218.49,249.44v-47.13h112.71c13.01,0,23.56,10.55,23.56,23.56v0c0,13.01-10.55,23.56-23.56,23.56H2218.49z
				"/>
		</g>
		<path class="st2" d="M2182.03,299.08h-165.62c-25.57,0-46.31-20.74-46.31-46.32V68.86c0-25.57,20.74-46.31,46.31-46.31
			c13.8,198.57,165.62,216.81,165.62,216.81V299.08z"/>
		
			<rect x="2037.08" y="154.13" transform="matrix(-1.836970e-16 1 -1 -1.836970e-16 2336.1594 -2014.5353)" class="st0" width="276.53" height="13.35"/>
		<path class="st0" d="M2112.02,299.08h-95.62c-25.57,0-46.31-20.74-46.31-46.32v-129.1
			C1970.1,254.02,2112.02,299.08,2112.02,299.08z"/>
		
			<rect x="1898.16" y="156.48" transform="matrix(-1.836970e-16 1 -1 -1.836970e-16 2126.5811 -1804.962)" class="st3" width="135.23" height="8.66"/>
		
			<rect x="2203.17" y="87.5" transform="matrix(-1.836970e-16 1 -1 -1.836970e-16 2322.4849 -2130.9907)" class="st4" width="47.13" height="16.5"/>
		
			<rect x="2203.17" y="217.62" transform="matrix(-1.836970e-16 1 -1 -1.836970e-16 2452.6096 -2000.866)" class="st4" width="47.13" height="16.5"/>
		<path class="st3" d="M1970.1,228.43h-64.26c-19.8,0-35.84-16.05-35.84-35.84v-63.56c0-10.92,4.89-20.7,12.59-27.27h0.01
			c-12.15,99.07,87.5,114.2,87.5,114.2V228.43z"/>
	</g>
	<g>
		<path class="st0" d="M2971.25,228.43h82.91c19.8,0,35.84-16.05,35.84-35.84v-63.56c0-10.92-4.89-20.7-12.59-27.27h-0.01
			c-6.25-5.34-14.37-8.56-23.24-8.56h-82.91V228.43z"/>
		<g>
			<g>
				<path class="st1" d="M2777.97,299.08h165.62c25.57,0,46.31-20.74,46.31-46.32V68.86c0-25.57-20.74-46.31-46.31-46.31h-165.62
					V299.08z"/>
				<path class="st2" d="M2741.51,6.08v309.46c0,3.36,2.72,6.08,6.08,6.08h24.3c3.36,0,6.08-2.72,6.08-6.08V6.08
					c0-3.36-2.72-6.08-6.08-6.08h-24.3C2744.23,0,2741.51,2.72,2741.51,6.08z"/>
			</g>
		</g>
		<path class="st2" d="M2777.97,299.08h165.62c25.57,0,46.31-20.74,46.31-46.32V68.86c0-25.57-20.74-46.31-46.31-46.31
			c-13.8,198.57-165.62,216.81-165.62,216.81V299.08z"/>
		
			<rect x="2646.39" y="154.13" transform="matrix(-1.836970e-16 1 -1 -1.836970e-16 2945.4646 -2623.8406)" class="st0" width="276.53" height="13.35"/>
		<path class="st0" d="M2847.98,299.08h95.62c25.57,0,46.31-20.74,46.31-46.32v-129.1C2989.9,254.02,2847.98,299.08,2847.98,299.08z
			"/>
		
			<rect x="2926.61" y="156.48" transform="matrix(-1.836970e-16 1 -1 -1.836970e-16 3155.0378 -2833.4189)" class="st3" width="135.23" height="8.66"/>
		<path class="st3" d="M2989.9,228.43h64.26c19.8,0,35.84-16.05,35.84-35.84v-63.56c0-10.92-4.89-20.7-12.59-27.27h-0.01
			c12.15,99.07-87.5,114.2-87.5,114.2V228.43z"/>
	</g>
	<rect x="0.32" y="140.01" class="st5" width="1869.68" height="41.61"/>
	<rect x="3090" y="144.29" class="st5" width="1910.31" height="41.61"/>
</g>
</svg>
