<?xml version="1.0" encoding="utf-8"?>
<!-- Generator: Adobe Illustrator 26.0.3, SVG Export Plug-In . SVG Version: 6.00 Build 0)  -->
<svg version="1.1"
	 id="Layer_1" inkscape:version="0.92.4 (5da689c313, 2019-01-14)" xmlns:cc="http://creativecommons.org/ns#" xmlns:dc="http://purl.org/dc/elements/1.1/" xmlns:inkscape="http://www.inkscape.org/namespaces/inkscape" xmlns:ns="http://ns.adobe.com/SaveForWeb/1.0/" xmlns:rdf="http://www.w3.org/1999/02/22-rdf-syntax-ns#" xmlns:sodipodi="http://sodipodi.sourceforge.net/DTD/sodipodi-0.dtd" xmlns:svg="http://www.w3.org/2000/svg"
	 xmlns="http://www.w3.org/2000/svg" xmlns:xlink="http://www.w3.org/1999/xlink" x="0px" y="0px" viewBox="0 0 320 312.5"
	 enable-background="new 0 0 320 312.5" xml:space="preserve">
<sodipodi:namedview  bordercolor="#666666" borderopacity="1" fit-margin-bottom="0" fit-margin-left="0" fit-margin-right="0" fit-margin-top="0" gridtolerance="10" guidetolerance="10" id="namedview1580" inkscape:current-layer="Layer_1" inkscape:cx="210.13804" inkscape:cy="134.0715" inkscape:guide-bbox="true" inkscape:pageopacity="0" inkscape:pageshadow="2" inkscape:window-height="1017" inkscape:window-maximized="1" inkscape:window-width="1920" inkscape:window-x="1912" inkscape:window-y="-8" inkscape:zoom="1.008547" objecttolerance="10" pagecolor="#ffffff" showgrid="true" showguides="true">
	<inkscape:grid  id="grid2369" originx="670" originy="333" type="xygrid"></inkscape:grid>
	<sodipodi:guide  id="guide2373" inkscape:locked="false" orientation="1,0" position="160,203.25003"></sodipodi:guide>
</sodipodi:namedview>
<g id="Layer_2_1_-8" transform="matrix(0.41666667,0,0,0.41666667,55,0)">
	<g id="Surfaces">
		<g id="Video_Audio_Surface">
			<g id="Outline_no_shadow-3">
				<path id="path2194" inkscape:connector-curvature="0" fill="#00005B" d="M-1014.02-1739.042H606.476
					c245.707,0,444.337,198.647,444.337,444.334V263.065c0,245.69-198.63,444.334-444.337,444.334H-1014.02
					c-245.687,0-444.334-198.643-444.334-444.334v-1557.773C-1458.354-1540.395-1259.707-1739.042-1014.02-1739.042z"/>
			</g>
		</g>
	</g>
	<g id="Outlined_Mnemonics_Logos">
		<g id="Ae">
			<path id="path2199" inkscape:connector-curvature="0" fill="#9999FF" d="M-450.51-275.352h-388.918l-79.455,246.721
				c-2.087,9.409-10.443,15.682-19.852,14.649h-196.56c-11.509,0-14.646-6.273-11.509-18.819l336.651-964.986
				c3.137-10.459,6.273-19.869,10.459-32.414c4.173-21.952,6.273-44.957,6.273-67.962c-1.033-5.22,3.137-10.443,8.376-11.493
				c1.034,0,2.067,0,3.136,0h267.639c7.31,0,12.546,3.137,13.579,8.356L-119.08-29.665c3.136,11.493,0,16.716-10.459,16.716
				h-218.512c-7.307,1.05-14.629-4.17-16.716-11.493L-450.51-275.352z M-778.776-483.425h265.543
				c-6.273-21.952-14.633-48.077-24.039-75.269c-9.409-28.225-18.819-58.536-28.228-89.898
				c-10.459-32.428-19.866-63.789-30.324-96.187c-10.443-32.411-19.853-62.739-28.225-93.051
				c-8.376-29.275-15.682-56.466-23.005-81.558h-2.087c-9.409,44.957-20.918,89.914-35.548,134.874
				c-15.682,50.177-31.361,102.456-48.094,154.736C-746.378-576.459-763.094-527.332-778.776-483.425L-778.776-483.425z"/>
			<path id="path2201" inkscape:connector-curvature="0" fill="#9999FF" d="M500.899-371.539H169.465
				c4.187,32.394,14.646,64.822,32.414,93.05c18.816,28.225,44.957,50.177,76.335,62.723
				c41.804,17.766,87.811,27.175,133.805,26.138c36.598-1.05,73.198-4.186,108.73-11.509c32.414-4.17,63.776-12.543,93.051-24.039
				c5.223-4.186,8.359-2.1,8.359,8.359v159.96c0,4.186-1.033,8.359-2.087,12.546c-2.083,3.137-4.186,5.236-7.323,7.323
				c-33.448,14.629-67.946,25.088-104.543,31.361c-49.143,9.409-98.273,13.596-148.45,12.546
				c-79.471,0-146.367-12.546-200.733-36.584c-51.246-21.952-96.187-56.466-131.734-99.34
				c-33.464-40.771-57.503-86.761-72.132-136.941C-59.49-315.089-66.8-366.319-66.8-418.599c0-56.449,8.343-111.869,26.125-166.232
				c16.732-52.267,42.874-100.36,78.421-143.23c34.498-41.82,77.368-75.268,126.498-99.307
				c49.143-24.055,107.696-32.427,174.592-32.427c55.416-1.037,110.816,9.406,162.063,32.427
				c42.854,18.819,80.488,47.044,109.766,83.625c27.175,35.551,49.143,75.269,62.739,119.192
				c13.579,41.82,19.852,84.678,19.852,127.548c0,25.088-1.037,47.044-2.087,66.912c-2.087,19.865-3.137,34.498-4.186,43.904
				c-1.037,7.323-7.307,13.596-14.633,13.596c-6.27,0-17.765,1.053-34.511,2.087c-16.716,2.103-36.584,3.137-60.623,3.137
				C553.163-367.369,528.074-371.539,500.899-371.539L500.899-371.539z M169.465-524.195h220.599c27.191,0,47.044,0,59.59-1.034
				c8.372-1.05,16.748-3.136,24.055-8.372v-10.446c0-13.592-2.103-26.138-6.273-38.684c-18.819-58.553-74.235-98.287-135.908-96.187
				c-57.516-3.137-111.866,27.191-139.057,79.455C179.924-575.409,172.601-550.318,169.465-524.195z"/>
		</g>
	</g>
</g>
</svg>
