<svg id="Layer_1" data-name="Layer 1" xmlns="http://www.w3.org/2000/svg" xmlns:xlink="http://www.w3.org/1999/xlink" viewBox="0 0 196 269.32"><defs><linearGradient id="linear-gradient" x1="-1275.25" y1="-401.62" x2="-1273.1" y2="-400.06" gradientTransform="translate(121284 52657.95) scale(95 131)" gradientUnits="userSpaceOnUse"><stop offset="0" stop-color="#fff" stop-opacity="0.1"/><stop offset="0.14" stop-color="#fff" stop-opacity="0.08"/><stop offset="0.61" stop-color="#fff" stop-opacity="0.02"/><stop offset="1" stop-color="#fff" stop-opacity="0"/></linearGradient></defs><path d="M142.11,217.64,175.25,5.52A6.12,6.12,0,0,1,186.7,3.58L221,67.52l13.67-26a6.12,6.12,0,0,1,10.83,0L338,217.64Z" transform="translate(-142 -0.34)" fill="#ffa000"/><path d="M256.63,135,221,67.49,142.11,217.64Z" transform="translate(-142 -0.34)" fill="#f57c00"/><path d="M338,217.64,312.61,60.53a6.12,6.12,0,0,0-10.36-3.31L142.11,217.63l88.61,49.7a18.41,18.41,0,0,0,17.91,0L338,217.64Z" transform="translate(-142 -0.34)" fill="#ffca28"/><path d="M312.61,60.53a6.12,6.12,0,0,0-10.36-3.31L270.47,89.08l-25-47.58a6.12,6.12,0,0,0-10.83,0L221,67.52,186.69,3.58a6.12,6.12,0,0,0-11.45,2l-33.13,212.1H142l.11.12.87.43L302.2,58.78a6.13,6.13,0,0,1,10.38,3.31l25.18,155.7.24-.15L312.61,60.53ZM142.4,217.35,175.25,7a6.13,6.13,0,0,1,11.46-2L221,69l13.66-26a6.13,6.13,0,0,1,10.84,0L270,89.57,142.4,217.35Z" transform="translate(-142 -0.34)" fill="#fff" fill-opacity="0.2"/><path d="M248.62,265.83a18.34,18.34,0,0,1-17.9,0l-88.4-49.55-.21,1.36,88.61,49.68a18.41,18.41,0,0,0,17.91,0L338,217.64l-.23-1.41-89.15,49.6Z" transform="translate(-142 -0.34)" fill="#a52714" opacity="0.2" style="isolation:isolate"/><path id="b" d="M312.36,60.56A6.1,6.1,0,0,0,302,57.25L270.36,89.1,245.45,41.54a6.09,6.09,0,0,0-10.79,0L221,67.55,186.87,3.64a6.09,6.09,0,0,0-11.4,1.95l-33,212,88.3,49.66a18.27,18.27,0,0,0,17.84,0l89.07-49.66-25.3-157Z" transform="translate(-142 -0.34)" fill="url(#linear-gradient)"/></svg>