<svg id="Layer_1" data-name="Layer 1" xmlns="http://www.w3.org/2000/svg" viewBox="0 0 303.47 270"><path d="M337.78,87.51h0q-4.84-1.67-9.77-3.08c.54-2.21,1.05-4.43,1.51-6.66,7.39-35.9,2.56-64.81-13.95-74.33-15.83-9.13-41.72.39-67.87,23.14q-3.87,3.38-7.56,6.94c-1.65-1.58-3.32-3.13-5-4.65-27.4-24.33-54.87-34.58-71.37-25C147.93,13,143.24,40.18,149.9,74.19q1,5.06,2.25,10.06c-3.89,1.1-7.65,2.28-11.24,3.53-32.12,11.2-52.64,28.76-52.64,47,0,18.81,22,37.68,55.49,49.11,2.71.93,5.45,1.78,8.2,2.57q-1.34,5.39-2.38,10.83c-6.35,33.43-1.39,60,14.38,69.07,16.3,9.4,43.64-.26,70.27-23.53q3.15-2.76,6.33-5.84,4,3.86,8.2,7.48c25.79,22.2,51.27,31.16,67,22,16.28-9.43,21.56-37.94,14.7-72.63-.53-2.65-1.13-5.36-1.82-8.11q2.88-.85,5.64-1.77c34.79-11.52,57.42-30.16,57.42-49.22C391.73,116.47,370.55,98.8,337.78,87.51ZM256.21,36.36c22.4-19.5,43.34-27.2,52.88-21.69h0c10.16,5.86,14.12,29.49,7.73,60.49-.42,2-.87,4-1.36,6a310.87,310.87,0,0,0-40.58-6.41,304.8,304.8,0,0,0-25.65-32Q252.64,39.48,256.21,36.36ZM177.87,150.3q4.11,7.95,8.6,15.7,4.58,7.91,9.53,15.59a275.51,275.51,0,0,1-28-4.5C170.71,168.44,174,159.45,177.87,150.3Zm0-30.49c-3.78-9-7-17.76-9.65-26.26,8.66-1.94,17.89-3.52,27.51-4.72q-4.83,7.53-9.3,15.29T177.86,119.81Zm6.89,15.25q6-12.48,12.9-24.47h0q6.91-12,14.72-23.42c9-.68,18.28-1,27.63-1s18.66.36,27.69,1.05q7.71,11.4,14.62,23.34t13.08,24.35q-6.08,12.51-13,24.57h0q-6.9,12-14.56,23.49c-9,.64-18.31,1-27.79,1s-18.63-.29-27.48-.87q-7.85-11.47-14.83-23.52T184.75,135.06Zm108.83,30.85q4.57-7.93,8.8-16.08h0a274.16,274.16,0,0,1,10.19,26.7,273.4,273.4,0,0,1-28.31,4.82q4.82-7.62,9.32-15.44Zm8.68-46.09q-4.22-8-8.73-15.79h0q-4.45-7.69-9.23-15.18c9.68,1.22,19,2.85,27.67,4.84A278.55,278.55,0,0,1,302.26,119.82ZM240.15,52A276.55,276.55,0,0,1,258,73.59q-17.92-.84-35.86,0C228,65.81,234.07,58.59,240.15,52Zm-69.91-37c10.15-5.87,32.6,2.51,56.26,23.51q2.28,2,4.56,4.21a310,310,0,0,0-25.85,32,316.56,316.56,0,0,0-40.5,6.29q-1.16-4.64-2.09-9.35h0C156.92,42.56,160.71,20.57,170.24,15.05Zm-14.8,158.88q-3.76-1.08-7.49-2.34a109.83,109.83,0,0,1-35.39-18.81,26.79,26.79,0,0,1-11.33-18c0-11,16.47-25.14,44-34.72q5.17-1.8,10.45-3.29a311.07,311.07,0,0,0,14.79,38.33A315.91,315.91,0,0,0,155.44,173.93ZM225.7,233a109.7,109.7,0,0,1-34,21.27h0a26.75,26.75,0,0,1-21.28.8c-9.57-5.52-13.55-26.83-8.12-55.42q1-5.07,2.21-10.07a306.7,306.7,0,0,0,40.9,5.92,316.56,316.56,0,0,0,26,32.18C229.59,229.52,227.67,231.3,225.7,233Zm14.8-14.65c-6.14-6.63-12.27-14-18.25-21.85q8.7.34,17.75.34,9.28,0,18.32-.4a275.19,275.19,0,0,1-17.82,21.91Zm78.73,18a26.83,26.83,0,0,1-9.94,18.84c-9.56,5.53-30-1.66-52.07-20.64q-3.8-3.27-7.63-7A304.83,304.83,0,0,0,275,195.35a303.38,303.38,0,0,0,41.1-6.33q.92,3.73,1.64,7.34h0a109.88,109.88,0,0,1,1.46,40Zm11-64.75h0q-2.49.83-5.09,1.59a305,305,0,0,0-15.37-38.44,304.19,304.19,0,0,0,14.77-37.89c3.1.9,6.12,1.85,9,2.85,28.08,9.67,45.21,24,45.21,35,0,11.74-18.5,27-48.54,36.92Z" transform="translate(-88.27 0)" fill="#61dafb"/><path d="M240,107.65a27.1,27.1,0,1,1-27.1,27.1h0A27.09,27.09,0,0,1,240,107.65h0" transform="translate(-88.27 0)" fill="#61dafb"/></svg>