<svg id="Layer_1" data-name="Layer 1" xmlns="http://www.w3.org/2000/svg" viewBox="0 0 480 199.73"><path d="M480,138.33c0-34.13-16.53-61.06-48.13-61.06s-50.94,26.93-50.94,60.8c0,40.13,22.67,60.4,55.2,60.4,15.87,0,27.87-3.6,36.94-8.67V163.13c-9.07,4.54-19.47,7.34-32.67,7.34-12.93,0-24.4-4.54-25.87-20.27h65.2C479.73,148.47,480,141.53,480,138.33Zm-65.87-12.66c0-15.07,9.2-21.34,17.6-21.34,8.14,0,16.8,6.27,16.8,21.34Z" transform="translate(0 -35.13)" fill="#635bff" fill-rule="evenodd"/><path d="M329.47,77.27a37.67,37.67,0,0,0-26.14,10.4L301.6,79.4H272.27V234.87l33.33-7.07.13-37.73c4.8,3.46,11.87,8.4,23.6,8.4,23.87,0,45.6-19.2,45.6-61.47C374.8,98.33,352.8,77.27,329.47,77.27Zm-8,91.86c-7.87,0-12.54-2.8-15.74-6.26l-.13-49.47c3.47-3.87,8.27-6.53,15.87-6.53,12.13,0,20.53,13.6,20.53,31.06C342,155.8,333.73,169.13,321.47,169.13Z" transform="translate(0 -35.13)" fill="#635bff" fill-rule="evenodd"/><polygon points="226.4 34.27 259.87 27.07 259.87 0 226.4 7.07 226.4 34.27" fill="#635bff" fill-rule="evenodd"/><rect x="226.4" y="44.4" width="33.47" height="116.67" fill="#635bff"/><path d="M190.53,89.4l-2.13-9.87H159.6V196.2h33.33V117.13c7.87-10.26,21.2-8.4,25.34-6.93V79.53C214,77.93,198.4,75,190.53,89.4Z" transform="translate(0 -35.13)" fill="#635bff" fill-rule="evenodd"/><path d="M123.87,50.6,91.33,57.53l-.13,106.8c0,19.74,14.8,34.27,34.53,34.27,10.94,0,18.94-2,23.34-4.4V167.13c-4.27,1.74-25.34,7.87-25.34-11.86V107.93h25.34V79.53H123.73Z" transform="translate(0 -35.13)" fill="#635bff" fill-rule="evenodd"/><path d="M33.73,113.4c0-5.2,4.27-7.2,11.34-7.2a74.43,74.43,0,0,1,33.06,8.53V83.4a87.89,87.89,0,0,0-33.06-6.13C18,77.27,0,91.4,0,115c0,36.8,50.67,30.93,50.67,46.8,0,6.13-5.34,8.13-12.8,8.13-11.07,0-25.2-4.53-36.4-10.66V191a92.48,92.48,0,0,0,36.4,7.6c27.73,0,46.8-13.73,46.8-37.6C84.53,121.27,33.73,128.33,33.73,113.4Z" transform="translate(0 -35.13)" fill="#635bff" fill-rule="evenodd"/></svg>