<svg id="Layer_1" data-name="Layer 1" xmlns="http://www.w3.org/2000/svg" viewBox="0 0 1080.14 1080"><path d="M1092.55,357.22a17.56,17.56,0,0,1-12.47-5.17l-42-42A17.64,17.64,0,0,1,1063,285.14l42,42a17.64,17.64,0,0,1-12.47,30.11Z" transform="translate(-419.93 0)"/><path d="M866.43,787.17A17.54,17.54,0,0,1,854,782l-42-42a17.64,17.64,0,0,1,24.94-24.95l42,42a17.64,17.64,0,0,1-12.47,30.11Z" transform="translate(-419.93 0)"/><path d="M1426.39,691.73c-51.71-46.64-122.9-65.82-192.26-52.38L1141.8,547l-26.93-26.92L980,385.21l-26.92-26.93-92.35-92.34c13.5-69.35-5.73-140.57-52.38-192.26A222.19,222.19,0,0,0,584,8a17.63,17.63,0,0,0-7.84,29.49l91,91.05a51.12,51.12,0,0,1,0,72.25l-46.54,46.53c-19.31,19.29-52.95,19.29-72.25,0l-91-91a17.63,17.63,0,0,0-29.49,7.84,223.43,223.43,0,0,0,57.26,216.28c53.16,53.18,127.69,75.54,201.12,60.81l118.5,118.5L940.41,695.31l27.08,27.08,91.41,91.41c-14.71,73.42,7.65,148,60.82,201.12A223.45,223.45,0,0,0,1336,1072.17a17.64,17.64,0,0,0,7.84-29.49l-91-91a51.15,51.15,0,0,1,0-72.25l46.53-46.53c19.3-19.29,53-19.29,72.25,0l91.05,91a17.64,17.64,0,0,0,29.49-7.84A222.14,222.14,0,0,0,1426.39,691.73Zm37.49,183.54-67.36-67.34a86.34,86.34,0,0,0-122.13,0l-46.53,46.53a86.46,86.46,0,0,0,0,122.13l67.28,67.31A187.87,187.87,0,0,1,1144.66,990c-45.39-45.39-64.08-109.31-50.59-172,.39-1.86.82-3.73,1.28-5.59a17.65,17.65,0,0,0-4.66-16.69l-12.11-12.11L704.37,409.38a17.64,17.64,0,0,0-12.48-5.17,17.82,17.82,0,0,0-4.21.51c-64.42,15.89-130.83-2.55-177.59-49.3a188,188,0,0,1-53.92-150.5l67.3,67.29a86.36,86.36,0,0,0,122.14,0l46.54-46.53a86.38,86.38,0,0,0,0-122.14L624.8,36.19A186.5,186.5,0,0,1,782.15,97.33c40,44.29,56,105.8,43.2,165.41h0c-.33,1.58-.69,3.15-1.07,4.73a17.66,17.66,0,0,0,4.68,16.6l12.47,12.47L1216,671.1a17.73,17.73,0,0,0,16.58,4.69c61.09-14.68,124.7,1.09,170.17,42.12A186.81,186.81,0,0,1,1463.88,875.27Z" transform="translate(-419.93 0)"/><path d="M799.45,331.22A17.64,17.64,0,0,1,787,301.11l42-42a17.64,17.64,0,1,1,24.94,24.94l-42,42A17.57,17.57,0,0,1,799.45,331.22Z" transform="translate(-419.93 0)"/><path d="M1078.58,826.17a17.64,17.64,0,0,1-12.47-30.11l42-42A17.64,17.64,0,0,1,1133,779l-42,42A17.56,17.56,0,0,1,1078.58,826.17Z" transform="translate(-419.93 0)"/><path d="M976.47,713.41l-9,9L898.89,791c16,79.7-8.31,160.63-66,218.34a242.63,242.63,0,0,1-234.82,62.16,19.14,19.14,0,0,1-8.5-32l98.84-98.83a55.56,55.56,0,0,0,0-78.44L637.86,811.7c-21-20.94-57.49-21-78.44,0l-98.84,98.83a19.14,19.14,0,0,1-32-8.51c-24.15-88.7,3.19-182,71.36-243.54,56.12-50.64,133.42-71.5,208.72-56.87l69-69,9-9a19.15,19.15,0,0,1,27.08,27.08l-9,9-76.42,76.41a19.27,19.27,0,0,1-18,5.09C644,625.23,575,642.37,525.59,686.9a202.83,202.83,0,0,0-66.37,170.83l73.12-73.11a93.77,93.77,0,0,1,132.6,0l50.52,50.52a93.88,93.88,0,0,1,0,132.6L642.4,1040.8a203.78,203.78,0,0,0,163.39-58.54c50.74-50.74,70.74-122.8,53.53-192.79a18.51,18.51,0,0,1-.54-4,19.13,19.13,0,0,1,5.6-14.08l14.4-14.41,61.63-61.63,9-9a19.15,19.15,0,1,1,27.08,27.08Z" transform="translate(-419.93 0)"/><path d="M1429.67,410.62c-57.4,57.39-137.85,81.6-217.13,65.65L1141.8,547l-6.4,6.4a19,19,0,0,1-26.92-26.93l6.39-6.39L1193,442a19,19,0,0,1,18-5c69.62,17.17,141.26-2.78,191.71-53.23A202.91,202.91,0,0,0,1461,221.23l-72.66,72.64a93.22,93.22,0,0,1-131.85,0l-50.23-50.24a93.22,93.22,0,0,1,0-131.85l72.7-72.71a201.48,201.48,0,0,0-169.85,66c-43.42,48.1-60.62,115-46.42,179.69.29,1.34.6,2.67.92,4a19,19,0,0,1-5,17.91l-11.9,11.9L980,385.21l-6.4,6.4a19,19,0,0,1-26.92-26.93l77.58-77.58c-14.58-74.87,6.18-151.75,56.54-207.55,61.18-67.81,154-95,242.16-71a19,19,0,0,1,8.47,31.84l-98.28,98.29a55.16,55.16,0,0,0,0,78l50.24,50.23c20.83,20.83,57.17,20.83,78,0l98.29-98.27a19,19,0,0,1,31.83,8.46C1514.15,260.37,1490.45,349.84,1429.67,410.62Z" transform="translate(-419.93 0)"/><path d="M1492.12,916.06a17.64,17.64,0,0,1-29.49,7.84l-91.05-91c-19.29-19.29-52.95-19.29-72.25,0L1252.8,879.4a51.15,51.15,0,0,0,0,72.25l91,91a17.64,17.64,0,0,1-7.84,29.49,223.45,223.45,0,0,1-216.27-57.25c-53.17-53.17-75.53-127.7-60.82-201.12l-91.41-91.41L898.89,791c16,79.7-8.31,160.63-66,218.34a242.63,242.63,0,0,1-234.82,62.16,19.14,19.14,0,0,1-8.5-32l98.84-98.83a55.56,55.56,0,0,0,0-78.44L637.86,811.7c-21-20.94-57.49-21-78.44,0l-98.84,98.83a19.14,19.14,0,0,1-32-8.51c-24.15-88.7,3.19-182,71.36-243.54,56.12-50.64,133.42-71.5,208.72-56.87l69-69-91.41-91.41c-73.43,14.73-148-7.63-201.12-60.81a223.43,223.43,0,0,1-57.26-216.28,17.63,17.63,0,0,1,29.49-7.84l91,91c19.3,19.29,52.94,19.29,72.25,0l46.54-46.53a51.12,51.12,0,0,0,0-72.25l-91-91.05A17.63,17.63,0,0,1,584,8,222.19,222.19,0,0,1,808.33,73.68c46.65,51.69,65.88,122.91,52.38,192.26l92.35,92.34,71.18-71.18c-14.58-74.87,6.18-151.75,56.54-207.55,61.18-67.81,154-95,242.16-71a19,19,0,0,1,8.47,31.84l-98.28,98.29a55.16,55.16,0,0,0,0,78l50.24,50.23c20.83,20.83,57.17,20.83,78,0l98.29-98.27a19,19,0,0,1,31.83,8.46c22.66,83.24-1,172.71-61.82,233.49-57.4,57.39-137.85,81.6-217.13,65.65L1141.8,547l92.33,92.33c69.36-13.44,140.55,5.74,192.26,52.38A222.14,222.14,0,0,1,1492.12,916.06Z" transform="translate(-419.93 0)"/></svg>