<svg id="Layer_1" data-name="Layer 1" xmlns="http://www.w3.org/2000/svg" viewBox="0 0 1080.14 1080"><path d="M1120.55,331.22a17.56,17.56,0,0,1-12.47-5.17l-42-42A17.64,17.64,0,0,1,1091,259.14l42,42a17.64,17.64,0,0,1-12.47,30.11Z" transform="translate(-419.93 0)"/><path d="M841.43,826.17A17.54,17.54,0,0,1,829,821l-42-42a17.64,17.64,0,0,1,24.94-24.95l42,42a17.64,17.64,0,0,1-12.47,30.11Z" transform="translate(-419.93 0)"/><path d="M1277.41,1080a223.1,223.1,0,0,1-157.69-65.08c-53.17-53.17-75.53-127.7-60.82-201.12L686.27,441.17c-73.43,14.73-148-7.63-201.12-60.81a223.43,223.43,0,0,1-57.26-216.28,17.63,17.63,0,0,1,29.49-7.84l91,91c19.3,19.29,52.94,19.29,72.25,0l46.54-46.53a51.12,51.12,0,0,0,0-72.25l-91-91.05A17.63,17.63,0,0,1,584,8,222.19,222.19,0,0,1,808.33,73.68c46.65,51.69,65.88,122.91,52.38,192.26l373.42,373.41c69.36-13.44,140.55,5.74,192.26,52.38a222.14,222.14,0,0,1,65.73,224.33,17.64,17.64,0,0,1-29.49,7.84l-91.05-91c-19.29-19.29-52.95-19.29-72.25,0L1252.8,879.4a51.15,51.15,0,0,0,0,72.25l91,91a17.64,17.64,0,0,1-7.84,29.49A222.58,222.58,0,0,1,1277.41,1080ZM691.89,404.21a17.64,17.64,0,0,1,12.48,5.17L1090.69,795.7a17.65,17.65,0,0,1,4.66,16.69c-15.86,64.45,2.57,130.84,49.31,177.58a187.87,187.87,0,0,0,150.48,53.93l-67.28-67.31a86.46,86.46,0,0,1,0-122.13l46.53-46.53a86.34,86.34,0,0,1,122.13,0l67.36,67.34a186.81,186.81,0,0,0-61.14-157.36c-45.47-41-109.08-56.8-170.17-42.12A17.73,17.73,0,0,1,1216,671.1l-387-387a17.66,17.66,0,0,1-4.68-16.6c14.66-61.07-1.09-124.68-42.13-170.15A186.5,186.5,0,0,0,624.8,36.19l67.35,67.35a86.38,86.38,0,0,1,0,122.14l-46.54,46.53a86.36,86.36,0,0,1-122.14,0l-67.3-67.29a188,188,0,0,0,53.92,150.5c46.76,46.75,113.17,65.19,177.59,49.3A17.82,17.82,0,0,1,691.89,404.21Z" transform="translate(-419.93 0)"/><path d="M799.45,331.22A17.64,17.64,0,0,1,787,301.11l42-42a17.64,17.64,0,1,1,24.94,24.94l-42,42A17.57,17.57,0,0,1,799.45,331.22Z" transform="translate(-419.93 0)"/><path d="M1078.58,826.17a17.64,17.64,0,0,1-12.47-30.11l42-42A17.64,17.64,0,0,1,1133,779l-42,42A17.56,17.56,0,0,1,1078.58,826.17Z" transform="translate(-419.93 0)"/><path d="M642.59,1080a222.71,222.71,0,0,1-58.59-7.83,17.63,17.63,0,0,1-7.83-29.49l91-91a51.16,51.16,0,0,0,0-72.25l-46.54-46.53c-19.32-19.29-53-19.31-72.25,0l-91,91a17.64,17.64,0,0,1-29.49-7.84,222.1,222.1,0,0,1,65.73-224.33c51.69-46.64,122.9-65.85,192.25-52.38l71.86-71.84a17.64,17.64,0,1,1,24.94,24.94L704,671.1a17.72,17.72,0,0,1-16.58,4.69c-61.1-14.68-124.7,1.1-170.18,42.12a186.83,186.83,0,0,0-61.13,157.36l67.35-67.34a86.36,86.36,0,0,1,122.14,0l46.54,46.53a86.48,86.48,0,0,1,0,122.13l-67.3,67.31A187.76,187.76,0,0,0,775.35,990c46.73-46.74,65.16-113.12,49.31-177.58a17.65,17.65,0,0,1,4.65-16.69l78.31-78.31a17.64,17.64,0,0,1,24.94,24.94L861.11,813.8c14.7,73.42-7.66,148-60.82,201.12A223.18,223.18,0,0,1,642.59,1080Z" transform="translate(-419.93 0)"/><path d="M1149.8,517.8a17.64,17.64,0,0,1-12.47-30.11l78.3-78.31a17.58,17.58,0,0,1,16.69-4.66c64.49,15.9,130.86-2.58,177.58-49.3a188,188,0,0,0,53.93-150.5l-67.31,67.29a86.34,86.34,0,0,1-122.13,0l-46.53-46.53a86.36,86.36,0,0,1,0-122.14l67.34-67.35a186.66,186.66,0,0,0-157.34,61.14c-41,45.47-56.8,109.08-42.13,170.15a17.66,17.66,0,0,1-4.68,16.6l-78.67,78.67a17.64,17.64,0,0,1-24.94-24.94l71.86-71.87c-13.51-69.35,5.72-140.57,52.38-192.26C1168.34,10.87,1254.29-14.28,1336,8a17.64,17.64,0,0,1,7.84,29.49l-91,91.05a51.07,51.07,0,0,0,0,72.25l46.53,46.53c19.3,19.29,53,19.29,72.25,0l91.05-91a17.63,17.63,0,0,1,29.49,7.84,223.5,223.5,0,0,1-57.27,216.28c-53.17,53.16-127.69,75.58-201.12,60.81l-71.46,71.46A17.57,17.57,0,0,1,1149.8,517.8Z" transform="translate(-419.93 0)"/></svg>