<svg id="Layer_1" data-name="Layer 1" xmlns="http://www.w3.org/2000/svg" viewBox="0 0 1079.14 1080"><defs><style>.cls-1{fill:#333;}</style></defs><path class="cls-1" d="M1287.09,111.25l.06-.1c-23.81-17.91-51-34.62-60.73-40.42a539,539,0,0,0-715.74,169.8C352.51,477.83,408.24,795.42,631,966.93c14,10.49,39.16,28.61,63.9,43.26,9.21,5.2,18.52,10.19,28,14.83.28.12.6.31.88.43a539.56,539.56,0,0,0,685.55-186C1567.93,601.39,1511.54,282.35,1287.09,111.25Zm44.1,138.23a471.27,471.27,0,0,1,85.47,175.64,702.37,702.37,0,0,1-89.1-13.66A840.44,840.44,0,0,0,1331.19,249.48Zm-81.67-81.23c.77.6,1.6,1.15,2.36,1.75,5.92,29.69,19.94,116.36,8.67,222.93a674.27,674.27,0,0,1-122.81-55.08ZM910.9,557.68,823.22,689.26a797.24,797.24,0,0,0-145.7-68.64q19-95.58,63.9-175.91ZM778.37,387.29C819.7,331,868.68,286.77,918.5,251.8a799.51,799.51,0,0,0,123.27,107.63L948.62,500.77ZM967.7,595.54l169.88,113.23q-57.07,72.78-138.84,127.33A736.25,736.25,0,0,0,880,727.19Zm37.72-56.91,93.93-142.52a736.12,736.12,0,0,0,150.26,65.76c-12.83,62.15-35.13,127.73-73.15,190.77Zm74.76-237.5a745.75,745.75,0,0,1-101.57-87.27c93.09-52.2,179-74,212.53-81.09ZM960.42,68.25A468.73,468.73,0,0,1,1095,88a838.77,838.77,0,0,0-163.14,73.36C902.62,125.39,883,94.73,872.25,76.5A475.21,475.21,0,0,1,960.42,68.25ZM804.19,94.92c8,15.34,30.48,55.27,69.25,104.42C820.2,237.63,767.81,286.09,722.9,347.43c-.48.64-.9,1.33-1.37,2L582.77,256.92A470.37,470.37,0,0,1,804.19,94.92ZM598.08,842.14a471,471,0,0,1-96.37-193.47,722.46,722.46,0,0,1,99.17,20.56Q591.42,751.4,598.08,842.14ZM490.4,578.57A468.9,468.9,0,0,1,546,314.45l138.42,92.26q-50.71,88.62-72.49,193.7C556.25,585.77,512.41,580.44,490.4,578.57ZM667.2,690.94a747.19,747.19,0,0,1,117.31,56.4l-110,165.06Q657.29,794.2,667.2,690.94Zm174.13,94.21a673.27,673.27,0,0,1,97.13,87c-60.85,32.51-130.13,58.5-207.23,78.17Zm118.16,226.57a468.83,468.83,0,0,1-130.55-18.66q83.64-28.06,154-67.19a701.74,701.74,0,0,1,51.18,79.76A475.8,475.8,0,0,1,959.49,1011.72ZM1103,989.52a795.89,795.89,0,0,0-61.44-99.69q89.79-61.08,153.1-143l132.78,88.51A470.5,470.5,0,0,1,1103,989.52Zm262.92-210.58-132.65-88.42c.41-.67.87-1.3,1.28-2,42.13-69.68,67-141.46,81.45-209.36a795.29,795.29,0,0,0,113.12,15.46A469.12,469.12,0,0,1,1365.94,778.94Z" transform="translate(-420.43)"/></svg>