<?xml version="1.0" encoding="utf-8"?>
<!-- Generator: Adobe Illustrator 26.0.3, SVG Export Plug-In . SVG Version: 6.00 Build 0)  -->
<svg version="1.1" id="Layer_1" xmlns="http://www.w3.org/2000/svg" xmlns:xlink="http://www.w3.org/1999/xlink" x="0px" y="0px"
	 viewBox="0 0 107.6 90.2" style="enable-background:new 0 0 107.6 90.2;" xml:space="preserve">
<style type="text/css">
	.st0{fill:#FFFFFF;}
</style>
<g>
	<g>
		<path class="st0" d="M66.46,9.89c-0.5-0.5-0.2-1.77,0.27-2.63c-1.01-0.71-2.1-1.26-3.24-1.64c-0.42,0.89-1.28,1.95-2,1.76
			C60.8,7.2,60.43,5.95,60.4,4.98c-1.21-0.1-2.43-0.04-3.62,0.2c0.08,0.98-0.13,2.33-0.85,2.52c-0.68,0.18-1.63-0.71-2.14-1.55
			c-1.08,0.51-2.1,1.17-3.04,1.99c0.56,0.81,1.05,2.08,0.52,2.61c-0.5,0.5-1.77,0.2-2.62-0.27c-0.71,1.01-1.26,2.1-1.64,3.24
			c0.89,0.42,1.95,1.28,1.76,2c-0.18,0.68-1.43,1.05-2.4,1.08c-0.1,1.21-0.04,2.43,0.2,3.62c0.98-0.08,2.33,0.13,2.52,0.85
			c0.18,0.68-0.71,1.63-1.54,2.14c0.5,1.08,1.17,2.1,1.99,3.04c0.81-0.56,2.08-1.05,2.61-0.52c0.5,0.5,0.2,1.77-0.27,2.62
			c1.01,0.71,2.1,1.26,3.24,1.64c0.42-0.89,1.28-1.95,2-1.76c0.68,0.18,1.05,1.43,1.08,2.4c1.21,0.1,2.43,0.04,3.62-0.2
			c-0.08-0.98,0.13-2.33,0.85-2.52c0.68-0.18,1.63,0.71,2.14,1.54c1.08-0.51,2.1-1.17,3.04-1.99c-0.55-0.81-1.05-2.08-0.52-2.61
			c0.5-0.5,1.77-0.2,2.62,0.27c0.71-1.01,1.26-2.1,1.64-3.24c-0.89-0.42-1.95-1.28-1.76-2c0.18-0.68,1.43-1.05,2.41-1.08
			c0.1-1.21,0.04-2.43-0.2-3.63c-0.98,0.08-2.33-0.13-2.52-0.85c-0.18-0.68,0.71-1.63,1.55-2.14c-0.5-1.08-1.17-2.1-1.99-3.04
			C68.26,9.92,66.99,10.42,66.46,9.89z M65.41,24.03c-3.38,3.38-8.85,3.38-12.23,0s-3.38-8.85,0-12.23s8.85-3.38,12.23,0
			C68.78,15.18,68.78,20.65,65.41,24.03z"/>
		<path class="st0" d="M54.3,12.92c2.75-2.75,7.24-2.75,9.99,0c2.75,2.75,2.75,7.24,0,9.99c-2.75,2.75-7.24,2.75-9.99,0
			C51.54,20.16,51.54,15.67,54.3,12.92 M53.9,12.52c-2.98,2.98-2.98,7.8,0,10.78c2.98,2.98,7.8,2.98,10.78,0
			c2.98-2.98,2.98-7.8,0-10.78C61.7,9.55,56.88,9.55,53.9,12.52L53.9,12.52z"/>
	</g>
	<g>
		<path class="st0" d="M52.64,58.4c-0.27-0.27-0.1-0.95,0.14-1.4c-0.54-0.38-1.13-0.67-1.73-0.88c-0.23,0.47-0.68,1.05-1.07,0.94
			c-0.36-0.1-0.56-0.77-0.58-1.29c-0.65-0.06-1.3-0.02-1.94,0.11c0.04,0.52-0.07,1.25-0.46,1.35c-0.37,0.1-0.87-0.38-1.15-0.83
			c-0.58,0.27-1.13,0.62-1.63,1.06c0.3,0.43,0.56,1.11,0.28,1.4c-0.27,0.27-0.94,0.1-1.4-0.14c-0.38,0.54-0.67,1.13-0.88,1.73
			c0.47,0.23,1.05,0.68,0.94,1.07c-0.1,0.36-0.77,0.56-1.29,0.58c-0.06,0.65-0.02,1.3,0.1,1.94c0.52-0.04,1.25,0.07,1.35,0.46
			c0.1,0.37-0.38,0.87-0.83,1.15c0.27,0.58,0.62,1.13,1.06,1.63c0.43-0.3,1.11-0.56,1.4-0.28c0.27,0.27,0.1,0.95-0.14,1.4
			c0.54,0.38,1.13,0.67,1.73,0.88c0.23-0.47,0.68-1.05,1.07-0.94c0.36,0.1,0.56,0.76,0.58,1.29c0.65,0.06,1.3,0.02,1.94-0.11
			c-0.04-0.52,0.07-1.25,0.46-1.35c0.37-0.1,0.87,0.38,1.15,0.83c0.58-0.27,1.13-0.62,1.63-1.06c-0.3-0.43-0.56-1.11-0.28-1.4
			c0.27-0.27,0.94-0.1,1.4,0.14c0.38-0.54,0.67-1.13,0.88-1.73c-0.47-0.23-1.05-0.68-0.94-1.07c0.1-0.36,0.77-0.56,1.29-0.58
			c0.06-0.65,0.02-1.3-0.1-1.94c-0.52,0.04-1.25-0.07-1.35-0.46c-0.1-0.37,0.38-0.87,0.83-1.15c-0.27-0.58-0.62-1.13-1.06-1.63
			C53.6,58.41,52.92,58.68,52.64,58.4z M52.08,65.96c-1.81,1.81-4.74,1.81-6.54,0c-1.81-1.81-1.81-4.74,0-6.54
			c1.81-1.81,4.74-1.81,6.54,0C53.89,61.22,53.89,64.15,52.08,65.96z"/>
		<path class="st0" d="M46.13,60.02c1.47-1.47,3.87-1.47,5.35,0c1.47,1.47,1.47,3.87,0,5.35c-1.47,1.47-3.87,1.47-5.35,0
			C44.66,63.89,44.66,61.49,46.13,60.02 M45.92,59.8c-1.59,1.59-1.59,4.18,0,5.77c1.59,1.59,4.18,1.59,5.77,0
			c1.59-1.59,1.59-4.18,0-5.77C50.1,58.21,47.51,58.21,45.92,59.8L45.92,59.8z"/>
	</g>
	<g>
		<path class="st0" d="M23.17,9.63c-0.44-0.44-0.17-1.57,0.24-2.34c-0.9-0.63-1.87-1.12-2.88-1.46c-0.38,0.79-1.13,1.74-1.78,1.57
			c-0.61-0.16-0.94-1.27-0.96-2.14c-1.08-0.09-2.16-0.03-3.22,0.17c0.07,0.87-0.11,2.07-0.76,2.24c-0.61,0.16-1.45-0.64-1.9-1.37
			c-0.96,0.45-1.87,1.04-2.7,1.77c0.49,0.72,0.94,1.85,0.46,2.32c-0.44,0.44-1.57,0.17-2.33-0.24c-0.63,0.9-1.12,1.87-1.46,2.88
			c0.79,0.38,1.74,1.13,1.57,1.78c-0.16,0.61-1.27,0.94-2.14,0.96c-0.09,1.08-0.03,2.16,0.17,3.22c0.87-0.07,2.07,0.12,2.24,0.76
			c0.16,0.61-0.64,1.45-1.37,1.9c0.45,0.96,1.04,1.87,1.77,2.7c0.72-0.49,1.85-0.94,2.32-0.46c0.44,0.44,0.17,1.57-0.24,2.33
			c0.9,0.63,1.87,1.12,2.88,1.46c0.38-0.79,1.13-1.74,1.78-1.56c0.61,0.16,0.94,1.27,0.96,2.14c1.08,0.09,2.16,0.03,3.22-0.17
			c-0.07-0.87,0.12-2.07,0.76-2.24c0.61-0.16,1.45,0.63,1.9,1.37c0.96-0.45,1.87-1.04,2.7-1.77c-0.49-0.72-0.94-1.85-0.46-2.32
			c0.44-0.44,1.57-0.17,2.33,0.24c0.63-0.9,1.12-1.87,1.46-2.88c-0.79-0.38-1.74-1.13-1.57-1.78c0.16-0.61,1.27-0.94,2.14-0.96
			c0.09-1.08,0.03-2.16-0.17-3.22c-0.87,0.07-2.07-0.11-2.24-0.76c-0.16-0.61,0.64-1.45,1.37-1.9c-0.45-0.96-1.04-1.87-1.77-2.7
			C24.77,9.66,23.64,10.11,23.17,9.63z M22.23,22.21c-3,3-7.88,3-10.88,0c-3-3-3-7.88,0-10.88c3-3,7.88-3,10.88,0
			C25.24,14.34,25.24,19.21,22.23,22.21z"/>
		<path class="st0" d="M12.35,12.33c2.45-2.45,6.44-2.45,8.89,0c2.45,2.45,2.45,6.44,0,8.89c-2.45,2.45-6.44,2.45-8.89,0
			C9.9,18.77,9.9,14.78,12.35,12.33 M12,11.98c-2.65,2.65-2.65,6.94,0,9.59c2.65,2.65,6.94,2.65,9.59,0c2.65-2.65,2.65-6.94,0-9.59
			C18.94,9.33,14.65,9.33,12,11.98L12,11.98z"/>
	</g>
	<g>
		<path class="st0" d="M97.49,10.15c-0.57-0.57-0.22-2.01,0.3-2.99c-1.16-0.81-2.4-1.43-3.69-1.87c-0.48,1.01-1.45,2.23-2.28,2.01
			c-0.78-0.21-1.2-1.63-1.23-2.74c-1.38-0.12-2.77-0.04-4.13,0.22c0.09,1.11-0.15,2.65-0.97,2.88c-0.78,0.21-1.86-0.81-2.44-1.76
			c-1.23,0.58-2.4,1.33-3.47,2.27c0.63,0.92,1.2,2.37,0.6,2.98c-0.57,0.57-2.01,0.22-2.99-0.31c-0.81,1.16-1.43,2.4-1.87,3.69
			c1.01,0.48,2.23,1.45,2.01,2.28c-0.21,0.78-1.63,1.2-2.74,1.23c-0.12,1.38-0.04,2.77,0.22,4.13c1.11-0.09,2.65,0.15,2.88,0.97
			c0.21,0.78-0.81,1.86-1.76,2.44c0.58,1.23,1.33,2.4,2.26,3.47c0.92-0.63,2.37-1.2,2.98-0.6c0.57,0.57,0.22,2.01-0.3,2.99
			c1.16,0.81,2.4,1.43,3.69,1.87c0.48-1.01,1.45-2.23,2.28-2.01c0.78,0.21,1.2,1.63,1.23,2.74c1.38,0.12,2.77,0.04,4.13-0.22
			c-0.09-1.11,0.15-2.65,0.97-2.88c0.78-0.21,1.86,0.81,2.44,1.76c1.23-0.58,2.4-1.33,3.47-2.26c-0.63-0.92-1.2-2.37-0.6-2.98
			c0.57-0.57,2.01-0.22,2.99,0.31c0.81-1.16,1.43-2.4,1.87-3.69c-1.01-0.48-2.23-1.45-2.01-2.28c0.21-0.78,1.63-1.2,2.74-1.23
			c0.12-1.38,0.04-2.77-0.22-4.13c-1.11,0.09-2.66-0.15-2.88-0.97c-0.21-0.78,0.82-1.86,1.76-2.44c-0.58-1.23-1.33-2.4-2.26-3.47
			C99.55,10.19,98.1,10.76,97.49,10.15z M96.3,26.28c-3.85,3.85-10.1,3.85-13.95,0c-3.85-3.85-3.85-10.1,0-13.95
			c3.85-3.85,10.1-3.85,13.95,0C100.15,16.18,100.15,22.43,96.3,26.28z"/>
		<path class="st0" d="M83.63,13.61c3.14-3.14,8.25-3.14,11.39,0c3.14,3.14,3.14,8.25,0,11.39s-8.25,3.14-11.39,0
			C80.49,21.86,80.49,16.75,83.63,13.61 M83.18,13.16c-3.39,3.39-3.39,8.9,0,12.29c3.39,3.39,8.9,3.39,12.29,0
			c3.39-3.39,3.39-8.9,0-12.29C92.08,9.76,86.57,9.76,83.18,13.16L83.18,13.16z"/>
	</g>
	<g>
		<path class="st0" d="M45.86,37.15c-0.45-0.45-0.18-1.6,0.24-2.37c-0.92-0.64-1.9-1.14-2.93-1.48c-0.38,0.8-1.15,1.77-1.81,1.59
			c-0.62-0.16-0.95-1.29-0.98-2.17c-1.09-0.09-2.2-0.03-3.28,0.18c0.07,0.88-0.12,2.1-0.77,2.28c-0.62,0.17-1.47-0.65-1.94-1.4
			c-0.98,0.46-1.9,1.06-2.75,1.8c0.5,0.73,0.95,1.88,0.47,2.36c-0.45,0.45-1.6,0.18-2.37-0.24c-0.64,0.92-1.14,1.9-1.48,2.93
			c0.8,0.38,1.77,1.15,1.59,1.81c-0.16,0.62-1.29,0.95-2.17,0.98c-0.09,1.09-0.04,2.2,0.18,3.28c0.88-0.07,2.1,0.12,2.28,0.77
			c0.17,0.62-0.65,1.47-1.4,1.93c0.46,0.98,1.06,1.9,1.8,2.75c0.73-0.5,1.88-0.95,2.36-0.47c0.45,0.45,0.18,1.6-0.24,2.37
			c0.92,0.64,1.9,1.14,2.93,1.48c0.38-0.8,1.15-1.77,1.81-1.59c0.62,0.17,0.95,1.29,0.98,2.17c1.09,0.09,2.2,0.03,3.28-0.18
			c-0.07-0.88,0.12-2.1,0.77-2.28c0.62-0.17,1.47,0.65,1.93,1.4c0.98-0.46,1.9-1.06,2.75-1.8c-0.5-0.73-0.95-1.88-0.47-2.36
			c0.45-0.45,1.6-0.18,2.37,0.24c0.64-0.92,1.14-1.9,1.48-2.93c-0.8-0.38-1.77-1.15-1.59-1.81c0.17-0.62,1.29-0.95,2.17-0.98
			c0.09-1.09,0.04-2.2-0.18-3.28c-0.88,0.07-2.11-0.12-2.28-0.77c-0.17-0.62,0.65-1.47,1.4-1.94c-0.46-0.98-1.06-1.9-1.8-2.75
			C47.49,37.18,46.34,37.63,45.86,37.15z M44.91,49.94c-3.05,3.05-8,3.05-11.06,0c-3.05-3.05-3.05-8,0-11.06
			c3.05-3.05,8-3.05,11.06,0C47.96,41.93,47.96,46.88,44.91,49.94z"/>
		<path class="st0" d="M34.87,39.89c2.49-2.49,6.54-2.49,9.03,0c2.49,2.49,2.49,6.54,0,9.03c-2.49,2.49-6.54,2.49-9.03,0
			C32.38,46.43,32.38,42.38,34.87,39.89 M34.51,39.53c-2.69,2.69-2.69,7.05,0,9.75c2.69,2.69,7.05,2.69,9.75,0
			c2.69-2.69,2.69-7.05,0-9.75C41.56,36.84,37.2,36.84,34.51,39.53L34.51,39.53z"/>
	</g>
	<g>
		<path class="st0" d="M78.06,33.5c-0.39-0.39-0.15-1.37,0.21-2.03c-0.78-0.55-1.63-0.97-2.5-1.27c-0.33,0.68-0.99,1.51-1.55,1.36
			c-0.53-0.14-0.81-1.11-0.84-1.86c-0.93-0.08-1.88-0.03-2.8,0.15c0.06,0.76-0.1,1.8-0.66,1.95c-0.53,0.14-1.26-0.55-1.65-1.19
			c-0.83,0.39-1.63,0.9-2.35,1.54c0.43,0.62,0.81,1.61,0.4,2.02c-0.39,0.39-1.37,0.15-2.03-0.21c-0.55,0.78-0.97,1.63-1.27,2.5
			c0.69,0.33,1.51,0.99,1.36,1.55c-0.14,0.53-1.11,0.81-1.86,0.84c-0.08,0.93-0.03,1.88,0.15,2.8c0.76-0.06,1.8,0.1,1.95,0.66
			c0.14,0.53-0.55,1.26-1.19,1.65c0.39,0.83,0.9,1.63,1.54,2.35c0.62-0.43,1.61-0.81,2.02-0.4c0.39,0.39,0.15,1.37-0.21,2.03
			c0.78,0.55,1.63,0.97,2.5,1.27c0.33-0.68,0.99-1.51,1.55-1.36c0.53,0.14,0.81,1.1,0.84,1.86c0.94,0.08,1.88,0.03,2.8-0.15
			c-0.06-0.76,0.1-1.8,0.66-1.95c0.53-0.14,1.26,0.55,1.65,1.19c0.83-0.39,1.63-0.9,2.35-1.54c-0.43-0.62-0.81-1.61-0.4-2.02
			c0.39-0.39,1.37-0.15,2.03,0.21c0.55-0.78,0.97-1.63,1.27-2.5c-0.68-0.33-1.51-0.99-1.36-1.55c0.14-0.53,1.11-0.81,1.86-0.84
			c0.08-0.93,0.03-1.88-0.15-2.8c-0.76,0.06-1.8-0.1-1.95-0.66c-0.14-0.53,0.55-1.26,1.19-1.65c-0.39-0.83-0.9-1.63-1.54-2.35
			C79.45,33.52,78.47,33.91,78.06,33.5z M77.25,44.42c-2.61,2.61-6.84,2.61-9.45,0c-2.61-2.61-2.61-6.84,0-9.45
			c2.61-2.61,6.84-2.61,9.45,0C79.86,37.58,79.86,41.81,77.25,44.42z"/>
		<path class="st0" d="M68.66,35.84c2.13-2.13,5.59-2.13,7.72,0c2.13,2.13,2.13,5.59,0,7.72c-2.13,2.13-5.59,2.13-7.72,0
			C66.53,41.43,66.53,37.97,68.66,35.84 M68.35,35.53c-2.3,2.3-2.3,6.03,0,8.33c2.3,2.3,6.03,2.3,8.33,0c2.3-2.3,2.3-6.03,0-8.33
			C74.38,33.23,70.65,33.23,68.35,35.53L68.35,35.53z"/>
	</g>
	<g>
		<path class="st0" d="M41.93,7.66c-0.3-0.3-0.12-1.07,0.16-1.6c-0.62-0.43-1.28-0.76-1.97-1c-0.26,0.54-0.78,1.19-1.22,1.07
			c-0.41-0.11-0.64-0.87-0.66-1.46c-0.74-0.06-1.48-0.02-2.2,0.12c0.05,0.59-0.08,1.42-0.52,1.53c-0.41,0.11-0.99-0.43-1.3-0.94
			C33.56,5.7,32.94,6.1,32.37,6.6c0.34,0.49,0.64,1.27,0.32,1.59c-0.3,0.3-1.07,0.12-1.6-0.16c-0.43,0.62-0.76,1.28-1,1.97
			c0.54,0.26,1.19,0.78,1.07,1.22c-0.11,0.41-0.87,0.64-1.46,0.66c-0.06,0.73-0.02,1.48,0.12,2.2c0.59-0.05,1.42,0.08,1.53,0.52
			c0.11,0.41-0.43,0.99-0.94,1.3c0.31,0.66,0.71,1.28,1.21,1.85c0.49-0.34,1.26-0.64,1.59-0.32c0.3,0.3,0.12,1.07-0.16,1.6
			c0.62,0.43,1.28,0.76,1.97,1c0.26-0.54,0.78-1.19,1.22-1.07c0.41,0.11,0.64,0.87,0.66,1.46c0.74,0.06,1.48,0.02,2.2-0.12
			c-0.05-0.59,0.08-1.42,0.52-1.53c0.41-0.11,0.99,0.43,1.3,0.94c0.66-0.31,1.28-0.71,1.85-1.21c-0.34-0.49-0.64-1.27-0.32-1.59
			c0.3-0.3,1.07-0.12,1.6,0.16c0.43-0.62,0.76-1.28,1-1.97c-0.54-0.26-1.19-0.78-1.07-1.22c0.11-0.41,0.87-0.64,1.46-0.66
			c0.06-0.74,0.02-1.48-0.12-2.2c-0.59,0.05-1.42-0.08-1.53-0.52c-0.11-0.41,0.43-0.99,0.94-1.3c-0.31-0.66-0.71-1.28-1.21-1.85
			C43.02,7.68,42.25,7.99,41.93,7.66z M41.29,16.26c-2.05,2.05-5.38,2.05-7.44,0c-2.05-2.05-2.05-5.38,0-7.44
			c2.05-2.05,5.38-2.05,7.44,0C43.34,10.88,43.34,14.21,41.29,16.26z"/>
		<path class="st0" d="M34.53,9.51c1.67-1.67,4.4-1.67,6.08,0c1.67,1.67,1.67,4.4,0,6.08c-1.67,1.67-4.4,1.67-6.08,0
			C32.86,13.91,32.86,11.18,34.53,9.51 M34.29,9.27c-1.81,1.81-1.81,4.74,0,6.56c1.81,1.81,4.74,1.81,6.56,0
			c1.81-1.81,1.81-4.74,0-6.56C39.04,7.46,36.1,7.46,34.29,9.27L34.29,9.27z"/>
	</g>
	<g>
		<path class="st0" d="M21.41,34.81c-0.42-0.42-0.17-1.5,0.23-2.23c-0.86-0.6-1.79-1.07-2.75-1.4c-0.36,0.75-1.08,1.66-1.7,1.5
			c-0.58-0.16-0.89-1.22-0.92-2.04c-1.03-0.09-2.07-0.03-3.08,0.17c0.07,0.83-0.11,1.98-0.72,2.14c-0.58,0.16-1.38-0.61-1.82-1.31
			c-0.92,0.43-1.79,0.99-2.58,1.69c0.47,0.69,0.89,1.77,0.44,2.22c-0.42,0.42-1.5,0.17-2.23-0.23c-0.6,0.86-1.07,1.79-1.4,2.75
			c0.75,0.36,1.66,1.08,1.5,1.7c-0.16,0.58-1.22,0.89-2.04,0.92c-0.09,1.03-0.03,2.06,0.17,3.08c0.83-0.06,1.98,0.11,2.14,0.73
			c0.16,0.58-0.61,1.38-1.31,1.82c0.43,0.92,0.99,1.79,1.69,2.58C7.7,48.42,8.78,48,9.23,48.45c0.42,0.42,0.17,1.5-0.23,2.23
			c0.86,0.6,1.79,1.07,2.75,1.4c0.36-0.75,1.08-1.66,1.7-1.49c0.58,0.16,0.89,1.21,0.92,2.04c1.03,0.09,2.07,0.03,3.08-0.17
			c-0.06-0.83,0.11-1.98,0.73-2.14c0.58-0.16,1.38,0.61,1.82,1.31c0.92-0.43,1.79-0.99,2.58-1.69c-0.47-0.69-0.89-1.77-0.44-2.22
			c0.42-0.42,1.5-0.17,2.23,0.23c0.6-0.86,1.07-1.79,1.4-2.75c-0.75-0.36-1.66-1.08-1.5-1.7c0.16-0.58,1.22-0.89,2.04-0.92
			c0.09-1.03,0.03-2.07-0.17-3.08c-0.83,0.06-1.98-0.11-2.14-0.73c-0.16-0.58,0.61-1.38,1.31-1.82c-0.43-0.92-0.99-1.79-1.69-2.58
			C22.94,34.84,21.86,35.26,21.41,34.81z M20.52,46.83c-2.87,2.87-7.52,2.87-10.39,0c-2.87-2.87-2.87-7.52,0-10.39
			c2.87-2.87,7.52-2.87,10.39,0C23.39,39.3,23.39,43.96,20.52,46.83z"/>
		<path class="st0" d="M11.08,37.38c2.34-2.34,6.15-2.34,8.49,0s2.34,6.15,0,8.49c-2.34,2.34-6.15,2.34-8.49,0
			C8.74,43.53,8.74,39.72,11.08,37.38 M10.74,37.05c-2.53,2.53-2.53,6.63,0,9.16c2.53,2.53,6.63,2.53,9.16,0
			c2.53-2.53,2.53-6.63,0-9.16C17.37,34.52,13.27,34.52,10.74,37.05L10.74,37.05z"/>
	</g>
	<g>
		<path class="st0" d="M35.28,23.75c-0.22-0.22-0.09-0.78,0.12-1.17c-0.45-0.32-0.93-0.56-1.44-0.73c-0.19,0.39-0.57,0.87-0.89,0.78
			c-0.3-0.08-0.47-0.64-0.48-1.07c-0.54-0.05-1.08-0.02-1.61,0.09c0.03,0.43-0.06,1.03-0.38,1.12c-0.3,0.08-0.72-0.32-0.95-0.69
			c-0.48,0.22-0.93,0.52-1.35,0.88c0.25,0.36,0.47,0.92,0.23,1.16c-0.22,0.22-0.78,0.09-1.17-0.12c-0.32,0.45-0.56,0.93-0.73,1.44
			c0.39,0.19,0.87,0.57,0.78,0.89c-0.08,0.3-0.64,0.47-1.07,0.48c-0.05,0.54-0.02,1.08,0.09,1.61c0.43-0.03,1.03,0.06,1.12,0.38
			c0.08,0.3-0.32,0.72-0.69,0.95c0.22,0.48,0.52,0.93,0.88,1.35c0.36-0.25,0.92-0.47,1.16-0.23c0.22,0.22,0.09,0.78-0.12,1.17
			c0.45,0.32,0.93,0.56,1.44,0.73c0.19-0.39,0.57-0.87,0.89-0.78c0.3,0.08,0.47,0.64,0.48,1.07c0.54,0.05,1.08,0.02,1.61-0.09
			c-0.03-0.43,0.06-1.03,0.38-1.12c0.3-0.08,0.72,0.32,0.95,0.69c0.48-0.22,0.93-0.52,1.35-0.88c-0.25-0.36-0.47-0.92-0.23-1.16
			c0.22-0.22,0.78-0.09,1.17,0.12c0.32-0.45,0.56-0.94,0.73-1.44c-0.39-0.19-0.87-0.57-0.78-0.89c0.08-0.3,0.64-0.47,1.07-0.48
			c0.05-0.54,0.02-1.08-0.09-1.61c-0.43,0.03-1.03-0.06-1.12-0.38c-0.08-0.3,0.32-0.72,0.69-0.95c-0.22-0.48-0.52-0.93-0.88-1.35
			C36.08,23.77,35.52,23.99,35.28,23.75z M34.81,30.04c-1.5,1.5-3.93,1.5-5.43,0c-1.5-1.5-1.5-3.93,0-5.43c1.5-1.5,3.93-1.5,5.43,0
			C36.31,26.1,36.31,28.53,34.81,30.04z"/>
		<path class="st0" d="M29.88,25.1c1.22-1.22,3.21-1.22,4.44,0c1.22,1.22,1.22,3.21,0,4.44c-1.22,1.22-3.21,1.22-4.44,0
			C28.65,28.31,28.65,26.32,29.88,25.1 M29.7,24.92c-1.32,1.32-1.32,3.47,0,4.79c1.32,1.32,3.47,1.32,4.79,0
			c1.32-1.32,1.32-3.47,0-4.79C33.17,23.6,31.03,23.6,29.7,24.92L29.7,24.92z"/>
	</g>
	<g>
		<path class="st0" d="M60.88,45.48c-0.22-0.22-0.09-0.78,0.12-1.17c-0.45-0.32-0.93-0.56-1.44-0.73c-0.19,0.39-0.57,0.87-0.89,0.78
			c-0.3-0.08-0.47-0.64-0.48-1.07c-0.54-0.05-1.08-0.02-1.61,0.09c0.03,0.43-0.06,1.03-0.38,1.12c-0.3,0.08-0.72-0.32-0.95-0.69
			c-0.48,0.22-0.93,0.52-1.35,0.88c0.25,0.36,0.47,0.92,0.23,1.16c-0.22,0.22-0.78,0.09-1.17-0.12c-0.32,0.45-0.56,0.93-0.73,1.44
			c0.39,0.19,0.87,0.57,0.78,0.89c-0.08,0.3-0.64,0.47-1.07,0.48c-0.05,0.54-0.02,1.08,0.09,1.61c0.43-0.03,1.03,0.06,1.12,0.38
			c0.08,0.3-0.32,0.72-0.69,0.95c0.22,0.48,0.52,0.93,0.88,1.35c0.36-0.25,0.92-0.47,1.16-0.23c0.22,0.22,0.09,0.78-0.12,1.17
			c0.45,0.32,0.93,0.56,1.44,0.73c0.19-0.39,0.57-0.87,0.89-0.78c0.3,0.08,0.47,0.64,0.48,1.07c0.54,0.05,1.08,0.02,1.61-0.09
			c-0.03-0.43,0.06-1.03,0.38-1.12c0.3-0.08,0.72,0.32,0.95,0.69c0.48-0.22,0.93-0.52,1.35-0.88c-0.25-0.36-0.47-0.92-0.23-1.16
			c0.22-0.22,0.78-0.09,1.17,0.12c0.32-0.45,0.56-0.94,0.73-1.44c-0.39-0.19-0.87-0.57-0.78-0.89c0.08-0.3,0.64-0.47,1.07-0.48
			c0.05-0.54,0.02-1.08-0.09-1.61c-0.43,0.03-1.03-0.06-1.12-0.38c-0.08-0.3,0.32-0.72,0.69-0.95c-0.22-0.48-0.52-0.93-0.88-1.35
			C61.68,45.5,61.12,45.72,60.88,45.48z M60.42,51.76c-1.5,1.5-3.93,1.5-5.43,0c-1.5-1.5-1.5-3.93,0-5.43c1.5-1.5,3.93-1.5,5.43,0
			C61.92,47.83,61.92,50.26,60.42,51.76z"/>
		<path class="st0" d="M55.48,46.83c1.22-1.22,3.22-1.22,4.44,0c1.22,1.22,1.22,3.21,0,4.44c-1.22,1.22-3.21,1.22-4.44,0
			C54.26,50.04,54.26,48.05,55.48,46.83 M55.31,46.65c-1.32,1.32-1.32,3.47,0,4.79c1.32,1.32,3.47,1.32,4.79,0
			c1.32-1.32,1.32-3.47,0-4.79C58.77,45.33,56.63,45.33,55.31,46.65L55.31,46.65z"/>
	</g>
	<g>
		<path class="st0" d="M57.71,34.63c-0.15-0.15-0.06-0.54,0.08-0.81c-0.31-0.22-0.65-0.39-0.99-0.5c-0.13,0.27-0.39,0.6-0.61,0.54
			c-0.21-0.06-0.32-0.44-0.33-0.74c-0.37-0.03-0.75-0.01-1.11,0.06c0.02,0.3-0.04,0.71-0.26,0.77c-0.21,0.06-0.5-0.22-0.66-0.47
			c-0.33,0.16-0.65,0.36-0.93,0.61c0.17,0.25,0.32,0.64,0.16,0.8c-0.15,0.15-0.54,0.06-0.81-0.08c-0.22,0.31-0.39,0.65-0.5,0.99
			c0.27,0.13,0.6,0.39,0.54,0.61c-0.06,0.21-0.44,0.32-0.74,0.33c-0.03,0.37-0.01,0.75,0.06,1.11c0.3-0.02,0.71,0.04,0.77,0.26
			c0.06,0.21-0.22,0.5-0.47,0.66c0.15,0.33,0.36,0.65,0.61,0.93c0.25-0.17,0.64-0.32,0.8-0.16c0.15,0.15,0.06,0.54-0.08,0.81
			c0.31,0.22,0.65,0.39,0.99,0.5c0.13-0.27,0.39-0.6,0.61-0.54c0.21,0.06,0.32,0.44,0.33,0.74c0.37,0.03,0.75,0.01,1.11-0.06
			c-0.02-0.3,0.04-0.71,0.26-0.77c0.21-0.06,0.5,0.22,0.66,0.47c0.33-0.16,0.65-0.36,0.93-0.61c-0.17-0.25-0.32-0.64-0.16-0.8
			c0.15-0.15,0.54-0.06,0.81,0.08c0.22-0.31,0.39-0.65,0.5-0.99c-0.27-0.13-0.6-0.39-0.54-0.61c0.06-0.21,0.44-0.32,0.74-0.33
			c0.03-0.37,0.01-0.75-0.06-1.11c-0.3,0.02-0.71-0.04-0.77-0.26c-0.06-0.21,0.22-0.5,0.47-0.66c-0.15-0.33-0.36-0.65-0.61-0.93
			C58.27,34.64,57.88,34.79,57.71,34.63z M57.39,38.96c-1.04,1.04-2.72,1.04-3.75,0c-1.04-1.04-1.04-2.72,0-3.75
			c1.04-1.04,2.72-1.04,3.75,0C58.43,36.25,58.43,37.93,57.39,38.96z"/>
		<path class="st0" d="M53.98,35.56c0.85-0.85,2.22-0.85,3.07,0c0.85,0.85,0.85,2.22,0,3.07c-0.85,0.85-2.22,0.85-3.07,0
			C53.14,37.78,53.14,36.4,53.98,35.56 M53.86,35.43c-0.91,0.91-0.91,2.39,0,3.31s2.39,0.91,3.31,0c0.91-0.91,0.91-2.39,0-3.31
			S54.77,34.52,53.86,35.43L53.86,35.43z"/>
	</g>
	<g>
		<path class="st0" d="M46.69,25.27c-0.18-0.18-0.07-0.62,0.09-0.93c-0.36-0.25-0.74-0.44-1.15-0.58c-0.15,0.31-0.45,0.69-0.71,0.62
			c-0.24-0.06-0.37-0.51-0.38-0.85c-0.43-0.04-0.86-0.01-1.28,0.07c0.03,0.35-0.05,0.82-0.3,0.89c-0.24,0.06-0.58-0.25-0.76-0.55
			c-0.38,0.18-0.74,0.41-1.07,0.7c0.2,0.29,0.37,0.74,0.18,0.92c-0.18,0.18-0.62,0.07-0.93-0.09c-0.25,0.36-0.44,0.74-0.58,1.15
			c0.31,0.15,0.69,0.45,0.62,0.71c-0.06,0.24-0.51,0.37-0.85,0.38c-0.04,0.43-0.01,0.86,0.07,1.28c0.35-0.03,0.82,0.05,0.89,0.3
			c0.06,0.24-0.25,0.58-0.55,0.76c0.18,0.38,0.41,0.74,0.7,1.08c0.29-0.2,0.74-0.37,0.92-0.18c0.18,0.18,0.07,0.62-0.09,0.93
			c0.36,0.25,0.74,0.44,1.15,0.58c0.15-0.31,0.45-0.69,0.71-0.62c0.24,0.06,0.37,0.51,0.38,0.85c0.43,0.04,0.86,0.01,1.28-0.07
			c-0.03-0.35,0.05-0.82,0.3-0.89c0.24-0.06,0.58,0.25,0.76,0.55c0.38-0.18,0.74-0.41,1.08-0.7c-0.2-0.29-0.37-0.74-0.18-0.92
			c0.18-0.18,0.62-0.07,0.93,0.09c0.25-0.36,0.44-0.74,0.58-1.15c-0.31-0.15-0.69-0.45-0.62-0.71c0.06-0.24,0.51-0.37,0.85-0.38
			c0.04-0.43,0.01-0.86-0.07-1.28c-0.35,0.03-0.82-0.05-0.89-0.3c-0.06-0.24,0.25-0.58,0.55-0.76c-0.18-0.38-0.41-0.74-0.7-1.08
			C47.33,25.29,46.88,25.46,46.69,25.27z M46.32,30.27c-1.19,1.19-3.13,1.19-4.33,0s-1.19-3.13,0-4.33c1.19-1.19,3.13-1.19,4.33,0
			C47.52,27.14,47.52,29.08,46.32,30.27z"/>
		<path class="st0" d="M42.39,26.35c0.97-0.97,2.56-0.97,3.53,0c0.97,0.97,0.97,2.56,0,3.53c-0.97,0.97-2.56,0.97-3.53,0
			C41.42,28.9,41.42,27.32,42.39,26.35 M42.25,26.21c-1.05,1.05-1.05,2.76,0,3.81c1.05,1.05,2.76,1.05,3.81,0
			c1.05-1.05,1.05-2.76,0-3.81C45.01,25.15,43.31,25.15,42.25,26.21L42.25,26.21z"/>
	</g>
	<g>
		<path class="st0" d="M32.33,60.14c-0.66-0.66-0.26-2.35,0.36-3.49c-1.35-0.94-2.8-1.67-4.31-2.19c-0.56,1.18-1.7,2.6-2.66,2.34
			c-0.91-0.24-1.4-1.9-1.44-3.2c-1.61-0.14-3.24-0.05-4.82,0.26c0.1,1.3-0.17,3.1-1.14,3.36c-0.91,0.24-2.17-0.95-2.85-2.06
			c-1.44,0.67-2.8,1.55-4.04,2.64c0.74,1.07,1.4,2.77,0.7,3.47c-0.66,0.66-2.35,0.26-3.49-0.36c-0.94,1.35-1.67,2.8-2.19,4.31
			c1.18,0.56,2.6,1.7,2.34,2.66c-0.24,0.91-1.9,1.4-3.2,1.44c-0.14,1.61-0.05,3.23,0.26,4.82c1.3-0.1,3.1,0.17,3.36,1.14
			c0.24,0.91-0.95,2.17-2.06,2.85c0.67,1.44,1.55,2.8,2.64,4.04c1.07-0.74,2.77-1.4,3.47-0.7c0.67,0.66,0.26,2.35-0.35,3.49
			c1.35,0.94,2.8,1.67,4.31,2.18c0.56-1.18,1.7-2.6,2.66-2.34c0.91,0.24,1.4,1.9,1.44,3.2c1.61,0.14,3.24,0.05,4.82-0.26
			c-0.1-1.3,0.17-3.1,1.14-3.36c0.91-0.24,2.17,0.95,2.85,2.06c1.44-0.67,2.8-1.55,4.04-2.64c-0.74-1.08-1.4-2.77-0.7-3.47
			c0.66-0.66,2.35-0.26,3.49,0.36c0.94-1.35,1.67-2.8,2.19-4.31c-1.18-0.56-2.6-1.7-2.34-2.66c0.24-0.91,1.9-1.4,3.2-1.44
			c0.14-1.61,0.05-3.23-0.26-4.82c-1.3,0.1-3.1-0.17-3.36-1.14c-0.24-0.91,0.95-2.17,2.06-2.85c-0.67-1.44-1.55-2.8-2.64-4.04
			C34.73,60.18,33.04,60.84,32.33,60.14z M30.94,78.96c-4.49,4.49-11.78,4.49-16.28,0c-4.49-4.49-4.49-11.78,0-16.28
			s11.78-4.49,16.28,0S35.43,74.46,30.94,78.96z"/>
		<path class="st0" d="M16.15,64.17c3.67-3.67,9.63-3.67,13.3,0c3.67,3.67,3.67,9.63,0,13.3c-3.67,3.67-9.63,3.67-13.3,0
			C12.48,73.8,12.48,67.83,16.15,64.17 M15.62,63.64c-3.96,3.96-3.96,10.39,0,14.35c3.96,3.96,10.39,3.96,14.35,0
			c3.96-3.96,3.96-10.39,0-14.35C26.01,59.68,19.59,59.68,15.62,63.64L15.62,63.64z"/>
	</g>
</g>
</svg>
