<svg id="Layer_1" data-name="Layer 1" xmlns="http://www.w3.org/2000/svg" xmlns:xlink="http://www.w3.org/1999/xlink" viewBox="0 0 440.85 270"><defs><clipPath id="clip-path" transform="translate(-19.57 0)"><path d="M179.75,62.37l-42,24.24A5.07,5.07,0,0,0,135.22,91v48.5a5.08,5.08,0,0,0,2.54,4.39l42,24.25a5,5,0,0,0,5.07,0l42-24.25a5.07,5.07,0,0,0,2.53-4.39V91a5,5,0,0,0-2.54-4.39l-42-24.24a5.13,5.13,0,0,0-2.54-.67,5.08,5.08,0,0,0-2.54.67" fill="none"/></clipPath><linearGradient id="linear-gradient" x1="-718.91" y1="682.72" x2="-717.72" y2="682.72" gradientTransform="matrix(-50.75, 103.54, 103.54, 50.75, -106960.27, 39836.75)" gradientUnits="userSpaceOnUse"><stop offset="0.3" stop-color="#3e863d"/><stop offset="0.5" stop-color="#55934f"/><stop offset="0.8" stop-color="#5aad45"/></linearGradient><clipPath id="clip-path-2" transform="translate(-19.57 0)"><path d="M136.26,142.58a5.25,5.25,0,0,0,1.5,1.31l36,20.8,6,3.45a5,5,0,0,0,2.93.66,4.79,4.79,0,0,0,1-.18L228,87.54a5.14,5.14,0,0,0-1.18-.94L199.31,70.73l-14.54-8.36a5.3,5.3,0,0,0-1.31-.53Z" fill="none"/></clipPath><linearGradient id="linear-gradient-2" x1="-717.44" y1="672.05" x2="-716.67" y2="672.05" gradientTransform="matrix(142.41, -105.22, -105.22, -142.41, 173011.22, 20370.51)" gradientUnits="userSpaceOnUse"><stop offset="0.57" stop-color="#3e863d"/><stop offset="0.72" stop-color="#619857"/><stop offset="1" stop-color="#76ac64"/></linearGradient><clipPath id="clip-path-3" transform="translate(-19.57 0)"><path d="M181.78,61.72a5.09,5.09,0,0,0-2,.65L137.88,86.54,183,168.76a5,5,0,0,0,1.8-.62l42-24.25a5.1,5.1,0,0,0,2.45-3.46l-46-78.62a5.07,5.07,0,0,0-1-.1,3,3,0,0,0-.42,0" fill="none"/></clipPath><linearGradient id="linear-gradient-3" x1="-713.58" y1="673.19" x2="-712.88" y2="673.19" gradientTransform="matrix(129.89, 0, 0, -129.89, 92824.01, 87555.22)" gradientUnits="userSpaceOnUse"><stop offset="0.16" stop-color="#6bbf47"/><stop offset="0.38" stop-color="#79b461"/><stop offset="0.47" stop-color="#75ac64"/><stop offset="0.7" stop-color="#659e5a"/><stop offset="0.9" stop-color="#3e863d"/></linearGradient></defs><path d="M237.47,270a8.3,8.3,0,0,1-4.17-1.12L220,261c-2-1.11-1-1.5-.36-1.72a27,27,0,0,0,6-2.74,1,1,0,0,1,1,.07l10.21,6.05a1.36,1.36,0,0,0,1.24,0l39.81-23a1.24,1.24,0,0,0,.61-1.07V192.68a1.28,1.28,0,0,0-.62-1.1l-39.8-23a1.21,1.21,0,0,0-1.22,0l-39.79,23a1.26,1.26,0,0,0-.63,1.09v45.94a1.22,1.22,0,0,0,.62,1.06L208,246c5.92,3,9.54-.53,9.54-4V196.59a1.12,1.12,0,0,1,1.15-1.14h5a1.14,1.14,0,0,1,1.15,1.14V242c0,7.89-4.31,12.42-11.79,12.42-2.3,0-4.12,0-9.18-2.49l-10.44-6a8.41,8.41,0,0,1-4.18-7.26V192.67a8.39,8.39,0,0,1,4.18-7.26l39.85-23a8.7,8.7,0,0,1,8.37,0l39.81,23a8.41,8.41,0,0,1,4.17,7.26v45.94a8.41,8.41,0,0,1-4.17,7.25l-39.81,23a8.32,8.32,0,0,1-4.19,1.12" transform="translate(-19.57 0)" fill="#689f63"/><path d="M249.77,238.34c-17.42,0-21.07-8-21.07-14.7a1.14,1.14,0,0,1,1.15-1.15H235a1.16,1.16,0,0,1,1.14,1c.77,5.24,3.09,7.88,13.62,7.88,8.39,0,12-1.89,12-6.34,0-2.57-1-4.47-14-5.74-10.9-1.08-17.64-3.48-17.64-12.2,0-8,6.78-12.82,18.13-12.82,12.74,0,19.06,4.43,19.86,13.93a1.16,1.16,0,0,1-.31.89,1.19,1.19,0,0,1-.85.37h-5.17a1.15,1.15,0,0,1-1.12-.9c-1.24-5.51-4.25-7.27-12.43-7.27-9.16,0-10.23,3.19-10.23,5.58,0,2.9,1.26,3.75,13.61,5.38s18.05,3.92,18.05,12.52-7.23,13.64-19.85,13.64m48.49-48.72h1.34a1.16,1.16,0,0,0,1.3-1.22c0-1.17-.8-1.17-1.25-1.17h-1.38Zm-1.62-3.77h3c1,0,3,0,3,2.27a2,2,0,0,1-1.63,2.12c1.19.08,1.27.85,1.43,2a8.35,8.35,0,0,0,.45,2.27H301c-.05-.4-.32-2.59-.32-2.71-.12-.49-.29-.73-.9-.73h-1.51v3.45h-1.66ZM293,190.19a6.44,6.44,0,1,0,6.41-6.42,6.44,6.44,0,0,0-6.41,6.42m14.11,0a7.67,7.67,0,1,1-7.67-7.68,7.7,7.7,0,0,1,7.67,7.68" transform="translate(-19.57 0)" fill="#689f63"/><path d="M114.18,90.24a5.1,5.1,0,0,0-2.54-4.43L69.42,61.52a4.89,4.89,0,0,0-2.32-.66h-.43a5,5,0,0,0-2.33.66L22.13,85.81a5.13,5.13,0,0,0-2.56,4.43l.1,65.42a2.52,2.52,0,0,0,1.26,2.2,2.4,2.4,0,0,0,2.53,0l25.1-14.37a5.15,5.15,0,0,0,2.55-4.42V108.51a5.1,5.1,0,0,1,2.54-4.42l10.69-6.15a5,5,0,0,1,2.55-.69,5,5,0,0,1,2.53.69l10.68,6.15a5.09,5.09,0,0,1,2.55,4.41v30.56a5.18,5.18,0,0,0,2.56,4.43l25.08,14.36a2.53,2.53,0,0,0,2.55,0,2.57,2.57,0,0,0,1.26-2.21ZM313.37,124.3a1.29,1.29,0,0,1-.64,1.1l-14.5,8.36a1.3,1.3,0,0,1-1.27,0l-14.5-8.36a1.27,1.27,0,0,1-.64-1.1V107.56a1.28,1.28,0,0,1,.63-1.11l14.49-8.37a1.27,1.27,0,0,1,1.28,0l14.5,8.37a1.27,1.27,0,0,1,.64,1.11Zm3.91-124a2.55,2.55,0,0,0-3.79,2.23V67.33a1.78,1.78,0,0,1-2.67,1.54l-10.58-6.09a5.09,5.09,0,0,0-5.09,0L252.92,87.15a5.09,5.09,0,0,0-2.55,4.41v48.75a5.09,5.09,0,0,0,2.55,4.41l42.23,24.39a5.1,5.1,0,0,0,5.1,0l42.22-24.4A5.09,5.09,0,0,0,345,140.3V18.8a5.11,5.11,0,0,0-2.62-4.46Zm140.61,106.8a5.1,5.1,0,0,0,2.54-4.41V90.9a5.1,5.1,0,0,0-2.54-4.41l-42-24.36a5.08,5.08,0,0,0-5.11,0L368.61,86.5a5.07,5.07,0,0,0-2.56,4.41v48.73a5.12,5.12,0,0,0,2.58,4.44L410.57,168a5.12,5.12,0,0,0,5,0L441,153.91a2.55,2.55,0,0,0,0-4.43L398.49,125.1a2.5,2.5,0,0,1-1.28-2.2V107.61a2.5,2.5,0,0,1,1.27-2.2l13.22-7.63a2.51,2.51,0,0,1,2.54,0l13.22,7.63a2.52,2.52,0,0,1,1.28,2.2v12a2.59,2.59,0,0,0,1.27,2.21,2.55,2.55,0,0,0,2.55,0Z" transform="translate(-19.57 0)" fill="#333" fill-rule="evenodd"/><path d="M412.76,104.84a.94.94,0,0,1,1,0l8.11,4.67a1,1,0,0,1,.49.85v9.36a1,1,0,0,1-.49.84l-8.11,4.68a1,1,0,0,1-1,0l-8.1-4.68a1,1,0,0,1-.5-.84v-9.36a1,1,0,0,1,.49-.85Z" transform="translate(-19.57 0)" fill="#689f63" fill-rule="evenodd"/><g clip-path="url(#clip-path)"><path d="M271.76,82.49l-118.3-58L92.79,148.25l118.31,58Z" transform="translate(-19.57 0)" fill="url(#linear-gradient)"/></g><g clip-path="url(#clip-path-2)"><path d="M85.11,99.64l83.54,113.07,110.48-81.63L195.59,18Z" transform="translate(-19.57 0)" fill="url(#linear-gradient-2)"/></g><g clip-path="url(#clip-path-3)"><path d="M137.88,61.71V168.77h91.37V61.71Z" transform="translate(-19.57 0)" fill="url(#linear-gradient-3)"/></g></svg>