<?xml version="1.0" encoding="utf-8"?>
<!-- Generator: Adobe Illustrator 26.0.3, SVG Export Plug-In . SVG Version: 6.00 Build 0)  -->
<svg version="1.1" id="Layer_1" xmlns="http://www.w3.org/2000/svg" xmlns:xlink="http://www.w3.org/1999/xlink" x="0px" y="0px"
	 viewBox="0 0 288 288" style="enable-background:new 0 0 288 288;" xml:space="preserve">
<style type="text/css">
	.st0{clip-path:url(#SVGID_00000134209307656788481160000009557438739556716172_);}
	.st1{opacity:0.6;fill:#D1D1D1;}
</style>
<g>
	<g>
		<defs>
			<rect id="SVGID_1_" x="0" y="0" width="288" height="288"/>
		</defs>
		<use xlink:href="#SVGID_1_"  style="overflow:visible;fill:#007EE0;"/>
		<clipPath id="SVGID_00000137846147357197595280000010427166443508084899_">
			<use xlink:href="#SVGID_1_"  style="overflow:visible;"/>
		</clipPath>
		<g style="clip-path:url(#SVGID_00000137846147357197595280000010427166443508084899_);">
			<g>
				<path class="st1" d="M300.31,308.68H-14.02V-5.65h314.33V308.68z M-13.77,308.43h313.83V-5.4H-13.77V308.43z"/>
			</g>
			<g>
				<rect x="-13.9" y="298.91" class="st1" width="314.08" height="0.25"/>
			</g>
			<g>
				<rect x="-13.9" y="289.39" class="st1" width="314.08" height="0.25"/>
			</g>
			<g>
				<rect x="-13.9" y="279.88" class="st1" width="314.08" height="0.25"/>
			</g>
			<g>
				<rect x="-13.9" y="270.36" class="st1" width="314.08" height="0.25"/>
			</g>
			<g>
				<rect x="-13.9" y="260.84" class="st1" width="314.08" height="0.25"/>
			</g>
			<g>
				<rect x="-13.9" y="251.32" class="st1" width="314.08" height="0.25"/>
			</g>
			<g>
				<rect x="-13.9" y="241.81" class="st1" width="314.08" height="0.25"/>
			</g>
			<g>
				<rect x="-13.9" y="232.29" class="st1" width="314.08" height="0.25"/>
			</g>
			<g>
				<rect x="-13.9" y="222.77" class="st1" width="314.08" height="0.25"/>
			</g>
			<g>
				<rect x="-13.9" y="213.25" class="st1" width="314.08" height="0.25"/>
			</g>
			<g>
				<rect x="-13.9" y="203.74" class="st1" width="314.08" height="0.25"/>
			</g>
			<g>
				<rect x="-13.9" y="194.22" class="st1" width="314.08" height="0.25"/>
			</g>
			<g>
				<rect x="-13.9" y="184.7" class="st1" width="314.08" height="0.25"/>
			</g>
			<g>
				<rect x="-13.9" y="175.18" class="st1" width="314.08" height="0.25"/>
			</g>
			<g>
				<rect x="-13.9" y="165.67" class="st1" width="314.08" height="0.25"/>
			</g>
			<g>
				<rect x="-13.9" y="156.15" class="st1" width="314.08" height="0.25"/>
			</g>
			<g>
				<rect x="-13.9" y="146.63" class="st1" width="314.08" height="0.25"/>
			</g>
			<g>
				<rect x="-13.9" y="137.11" class="st1" width="314.08" height="0.25"/>
			</g>
			<g>
				<rect x="-13.9" y="127.6" class="st1" width="314.08" height="0.25"/>
			</g>
			<g>
				<rect x="-13.9" y="118.08" class="st1" width="314.08" height="0.25"/>
			</g>
			<g>
				<rect x="-13.9" y="108.56" class="st1" width="314.08" height="0.25"/>
			</g>
			<g>
				<rect x="-13.9" y="99.04" class="st1" width="314.08" height="0.25"/>
			</g>
			<g>
				<rect x="-13.9" y="89.53" class="st1" width="314.08" height="0.25"/>
			</g>
			<g>
				<rect x="-13.9" y="80.01" class="st1" width="314.08" height="0.25"/>
			</g>
			<g>
				<rect x="-13.9" y="70.49" class="st1" width="314.08" height="0.25"/>
			</g>
			<g>
				<rect x="-13.9" y="60.97" class="st1" width="314.08" height="0.25"/>
			</g>
			<g>
				<rect x="-13.9" y="51.46" class="st1" width="314.08" height="0.25"/>
			</g>
			<g>
				<rect x="-13.9" y="41.94" class="st1" width="314.08" height="0.25"/>
			</g>
			<g>
				<rect x="-13.9" y="32.42" class="st1" width="314.08" height="0.25"/>
			</g>
			<g>
				<rect x="-13.9" y="22.9" class="st1" width="314.08" height="0.25"/>
			</g>
			<g>
				<rect x="-13.9" y="13.39" class="st1" width="314.08" height="0.25"/>
			</g>
			<g>
				<rect x="-13.9" y="3.87" class="st1" width="314.08" height="0.25"/>
			</g>
			<g>
				<rect x="289.59" y="-5.52" class="st1" width="0.25" height="314.08"/>
			</g>
			<g>
				<rect x="279.12" y="-5.52" class="st1" width="0.25" height="314.08"/>
			</g>
			<g>
				<rect x="268.65" y="-5.52" class="st1" width="0.25" height="314.08"/>
			</g>
			<g>
				<rect x="258.18" y="-5.52" class="st1" width="0.25" height="314.08"/>
			</g>
			<g>
				<rect x="247.71" y="-5.52" class="st1" width="0.25" height="314.08"/>
			</g>
			<g>
				<rect x="237.24" y="-5.52" class="st1" width="0.25" height="314.08"/>
			</g>
			<g>
				<rect x="226.77" y="-5.52" class="st1" width="0.25" height="314.08"/>
			</g>
			<g>
				<rect x="216.3" y="-5.52" class="st1" width="0.25" height="314.08"/>
			</g>
			<g>
				<rect x="205.83" y="-5.52" class="st1" width="0.25" height="314.08"/>
			</g>
			<g>
				<rect x="195.36" y="-5.52" class="st1" width="0.25" height="314.08"/>
			</g>
			<g>
				<rect x="184.9" y="-5.52" class="st1" width="0.25" height="314.08"/>
			</g>
			<g>
				<rect x="174.43" y="-5.52" class="st1" width="0.25" height="314.08"/>
			</g>
			<g>
				<rect x="163.96" y="-5.52" class="st1" width="0.25" height="314.08"/>
			</g>
			<g>
				<rect x="153.49" y="-5.52" class="st1" width="0.25" height="314.08"/>
			</g>
			<g>
				<rect x="143.02" y="-5.52" class="st1" width="0.25" height="314.08"/>
			</g>
			<g>
				<rect x="132.55" y="-5.52" class="st1" width="0.25" height="314.08"/>
			</g>
			<g>
				<rect x="122.08" y="-5.52" class="st1" width="0.25" height="314.08"/>
			</g>
			<g>
				<rect x="111.61" y="-5.52" class="st1" width="0.25" height="314.08"/>
			</g>
			<g>
				<rect x="101.14" y="-5.52" class="st1" width="0.25" height="314.08"/>
			</g>
			<g>
				<rect x="90.67" y="-5.52" class="st1" width="0.25" height="314.08"/>
			</g>
			<g>
				<rect x="80.2" y="-5.52" class="st1" width="0.25" height="314.08"/>
			</g>
			<g>
				<rect x="69.73" y="-5.52" class="st1" width="0.25" height="314.08"/>
			</g>
			<g>
				<rect x="59.26" y="-5.52" class="st1" width="0.25" height="314.08"/>
			</g>
			<g>
				<rect x="48.79" y="-5.52" class="st1" width="0.25" height="314.08"/>
			</g>
			<g>
				<rect x="38.33" y="-5.52" class="st1" width="0.25" height="314.08"/>
			</g>
			<g>
				<rect x="27.86" y="-5.52" class="st1" width="0.25" height="314.08"/>
			</g>
			<g>
				<rect x="17.39" y="-5.52" class="st1" width="0.25" height="314.08"/>
			</g>
			<g>
				<rect x="6.92" y="-5.52" class="st1" width="0.25" height="314.08"/>
			</g>
			<g>
				<rect x="-3.55" y="-5.52" class="st1" width="0.25" height="314.08"/>
			</g>
		</g>
	</g>
</g>
</svg>
